<?xml version="1.0" encoding="utf-8"?>
<!-- Generator: Adobe Illustrator 23.0.3, SVG Export Plug-In . SVG Version: 6.00 Build 0)  -->
<svg version="1.1" id="Layer_1" xmlns="http://www.w3.org/2000/svg" xmlns:xlink="http://www.w3.org/1999/xlink" x="0px" y="0px"
	 viewBox="0 0 48 48" style="enable-background:new 0 0 48 48;" xml:space="preserve">
<style type="text/css">
	.st0{fill:none;}
	.st1{fill:#FFFFFF;}
</style>
<path class="st0" d="M48,48H0V0h48V48z"/>
<g>
	<g>
		<path class="st1" d="M29.08,17.72c-0.65,0-1.17,0.53-1.17,1.17c0,0.65,0.53,1.17,1.17,1.17c0.65,0,1.17-0.53,1.17-1.17
			C30.25,18.25,29.73,17.72,29.08,17.72z"/>
		<path class="st1" d="M28.77,14.38h-9.54c-2.68,0-4.86,2.18-4.86,4.86v9.54c0,2.68,2.18,4.86,4.86,4.86h9.54
			c2.68,0,4.86-2.18,4.86-4.86v-9.54C33.62,16.55,31.45,14.38,28.77,14.38z M31.53,28.77c0,1.52-1.24,2.76-2.76,2.76h-9.54
			c-1.52,0-2.76-1.24-2.76-2.76v-9.54c0-1.52,1.24-2.76,2.76-2.76h9.54c1.52,0,2.76,1.24,2.76,2.76V28.77z"/>
		<path class="st1" d="M24,19.04c-2.73,0-4.96,2.22-4.96,4.96c0,2.73,2.23,4.96,4.96,4.96c2.73,0,4.96-2.23,4.96-4.96
			C28.96,21.27,26.73,19.04,24,19.04z M24,26.86c-1.58,0-2.86-1.28-2.86-2.86c0-1.58,1.28-2.86,2.86-2.86
			c1.58,0,2.86,1.28,2.86,2.86C26.86,25.58,25.58,26.86,24,26.86z"/>
	</g>
</g>
</svg>
