<?xml version="1.0" encoding="utf-8"?>
<!-- Generator: Adobe Illustrator 23.0.3, SVG Export Plug-In . SVG Version: 6.00 Build 0)  -->
<svg version="1.1" id="Layer_1" xmlns="http://www.w3.org/2000/svg" xmlns:xlink="http://www.w3.org/1999/xlink" x="0px" y="0px"
	 viewBox="0 0 48 48" style="enable-background:new 0 0 48 48;" xml:space="preserve">
<style type="text/css">
	.st0{fill:none;}
	.st1{fill:#FFFFFF;}
</style>
<path class="st0" d="M48,48H0V0h48V48z"/>
<g>
	<path class="st1" d="M33.8,19.5c-0.69,0.3-1.42,0.51-2.2,0.6c0.79-0.47,1.4-1.22,1.68-2.12c-0.74,0.44-1.56,0.76-2.43,0.93
		c-0.7-0.74-1.69-1.21-2.79-1.21c-2.11,0-3.82,1.71-3.82,3.82c0,0.3,0.03,0.59,0.1,0.87c-3.18-0.16-6-1.68-7.88-4
		c-0.33,0.57-0.52,1.22-0.52,1.92c0,1.33,0.68,2.5,1.7,3.18c-0.63-0.02-1.22-0.19-1.73-0.48c0,0.02,0,0.03,0,0.05
		c0,1.85,1.32,3.4,3.07,3.75c-0.32,0.09-0.66,0.14-1.01,0.14c-0.25,0-0.49-0.02-0.72-0.07c0.49,1.52,1.9,2.63,3.57,2.66
		c-1.31,1.03-2.96,1.64-4.75,1.64c-0.31,0-0.61-0.02-0.91-0.05c1.69,1.08,3.7,1.72,5.86,1.72c7.03,0,10.88-5.83,10.88-10.88
		c0-0.17,0-0.33-0.01-0.49C32.64,20.94,33.29,20.27,33.8,19.5L33.8,19.5z M33.8,19.5"/>
</g>
</svg>
